[img]http://img443.imageshack.us/img443/3766/36222593.jpg[/img]

Safe.House.2012.TS.READNFO.XviD-SiC
 
http://www.imdb.com/title/tt1599348/


Video
ID : 0
Format : MPEG-4 Visual
Format profile : Advanced Simple@L5
Format settings, BVOP : 2
Format settings, QPel : No
Format settings, GMC : No warppoints
Format settings, Matrix : Default (H.263)
Muxing mode : Packed bitstream
Codec ID : XVID
Codec ID/Hint : XviD
Duration : 1h 44mn
Bit rate : 1 731 Kbps
Width : 720 pixels
Height : 272 pixels
Display aspect ratio : 2.647
Frame rate : 25.000 fps
Color space : YUV
Chroma subsampling : 4:2:0
Bit depth : 8 bits
Scan type : Progressive
Compression mode : Lossy
Bits/(Pixel*Frame) : 0.354
Stream size : 1.27 GiB (93%)
Writing library : XviD 64

Audio
ID : 1
Format : MPEG Audio
Format version : Version 1
Format profile : Layer 3
Mode : Joint stereo
Mode extension : MS Stereo
Codec ID : 55
Codec ID/Hint : MP3
Duration : 1h 44mn
Bit rate mode : Constant
Bit rate : 128 Kbps
Channel(s) : 2 channels
Sampling rate : 44.1 KHz
Compression mode : Lossy
Stream size : 96.1 MiB (7%)
Alignment : Split accross interleaves
Interleave, duration : 40 ms (1.00 video frame)

Plot:
A young CIA agent is tasked with looking
after a fugitive in a safe house.
But when the safe house is attacked,
he finds himself on the run with his charge.

cast.
Denzel Washington ... Tobin Frost
Ryan Reynolds ... Matt Weston
Vera Farmiga ... Catherine Linklater
Brendan Gleeson ... David Barlow
Sam Shepard ... Harlan Whitford
Rubï¿½n Blades ... Carlos Villar
Nora Arnezeder ... Ana Moreau
Robert Patrick ... Daniel Kiefer
Liam Cunningham ... Alec Wade
Joel Kinnaman ... Keller
Fares Fares ... Vargas
Jenna Dover ... CIA Analyst
Stephen Rider ... CIA Analyst
Daniel Fox ... CIA Analyst
Tracie Thoms ... CIA Analyst

Notes:
Video is decent, lose of picture
from time to time but doesnt last long.
3 minutes 48 seconds of blackness
around 24 minutes so we left
the russian cam audio there.
Audio is nice, check sample.

Sources -
V: LUM1X
A: LittlebirD

Screenshots:

[img]http://img440.imageshack.us/img440/313/34304347.png[/img]
[img]http://img443.imageshack.us/img443/23/76702877.png[/img]
[img]http://img585.imageshack.us/img585/9527/31366572.png[/img]

